<!DOCTYPE svg PUBLIC "-//W3C//DTD SVG 20010904//EN" "http://www.w3.org/TR/2001/REC-SVG-20010904/DTD/svg10.dtd">
<svg version="1.0" xmlns="http://www.w3.org/2000/svg" width="740px" height="800px" viewBox="0 0 740 800" preserveAspectRatio="xMidYMid meet">
<g id="layer101" fill="#005a93" stroke="none">
<path d="M586 659 c-26 -30 -26 -32 -26 -210 0 -174 1 -179 21 -179 31 0 57 17 74 50 12 23 15 67 15 200 0 170 0 170 -29 170 -20 0 -37 -9 -55 -31z"/>
<path d="M577 192 c-24 -27 -21 -59 8 -78 45 -30 98 12 74 59 -22 41 -55 49 -82 19z"/>
</g>
<g id="layer102" fill="#b0ab16" stroke="none">
<path d="M195 674 c-97 -53 -125 -118 -125 -291 0 -113 0 -113 26 -113 15 0 38 12 55 29 28 29 29 33 29 126 0 97 0 97 34 131 28 28 42 34 76 34 34 0 48 -6 76 -34 34 -34 34 -34 34 -131 0 -93 1 -97 29 -126 18 -18 40 -29 56 -29 27 0 27 0 23 133 -3 123 -5 136 -31 180 -42 71 -94 101 -181 105 -51 2 -79 -2 -101 -14z"/>
</g>
<g id="layer103" fill="#5dacdf" stroke="none">
<path d="M240 400 c0 -139 10 -182 53 -228 34 -37 95 -64 158 -69 58 -6 58 -6 49 27 -12 42 -35 67 -70 75 -15 3 -40 20 -56 36 -27 28 -29 37 -32 117 -4 117 -7 129 -45 152 -56 35 -57 33 -57 -110z"/>
</g>


</svg>